<svg width="800" height="600" xmlns="http://www.w3.org/2000/svg">
 <!-- Created with Method Draw - http://github.com/duopixel/Method-Draw/ -->
 <g>
  <title>Layer 1</title>
  <rect id="svg_24" height="424" width="663" y="99.45" x="8.5" stroke-width="24" stroke="#5085ec" fill-opacity="0"/>
  <rect id="svg_29" height="253" width="348" y="180.45" x="282.5" stroke-width="17" fill="#5085ec"/>
  <path d="m368.5,250.45001c0,-1 0,-4 0,-7c0,-2.00002 0,-4.00002 0,-4.00002c0,-1 0.76108,-2.41589 4,-4c2.84073,-1.38936 4.69345,-2.4588 6,-3c0.92389,-0.38269 2.02676,-0.22975 3,0c2.17624,0.51375 2.69254,3.186 4,5c0.8269,1.14726 1,2 1,3c0,2 -0.14429,3.93416 -1,6.00002c-1.21014,2.92157 -3.06601,4.87766 -5,6c-3.11847,1.80972 -4.87857,3.49347 -8,4c-1.97418,0.32037 -4.23666,0.94373 -6,0c-3.17892,-1.70129 -3.49756,-7.92578 -4,-13c-0.39417,-3.98055 -0.30746,-6.18602 1,-8.00002c0.8269,-1.14726 2,-1 3,-1c2,0 5,0 8,2c3,2 4.69257,4.186 6,6c0.8269,1.14729 1.48056,3.03874 1,6.00002c-0.50653,3.12143 -2.82443,5.0979 -4,7c-0.52573,0.85065 -1.07611,1.38269 -2,1c-1.30655,-0.5412 -2.48627,-3.82376 -3,-6c-0.68927,-2.91974 0,-6 0,-9.00002c0,-2 2,-4 4,-5c2,-1 3,-1 5,-1c0,0 2.14935,-0.52573 3,0c1.9021,1.17557 2.49347,4.87856 3,8.00002c0.16019,0.98709 0,3 0,3c0,1 0.17624,2.48627 -2,3c-1.9465,0.4595 -3,1 -6,1c-3,0 -6.07611,0.38269 -7,0c-1.30655,-0.5412 -1,-3 -1,-5c0,-2 -0.52573,-3.14937 0,-4.00002c1.17557,-1.90211 3.86829,-2.28859 8,-4c2.92157,-1.21014 7,-2 8,-2c1,0 2,0 2,0c0,1 1.48627,2.82375 2,5c0.4595,1.9465 1.49347,4.87859 2,8.00002c0.32037,1.97418 1,3 1,5c0,1 0,1 0,2c0,1 -1,1 -2,1c-1,0 -3,0 -4,0c-3,0 -5,0 -8,0c-1,0 -2,-1 -3,-2c-1,-1 -1,-2 -1,-3c0,-1 0.07611,-0.61731 1,-1c1.30655,-0.5412 2,-1 4,-1c0,0 1,0 1,0c1,0 1,0 1,0l0,1l0,1l0,0" id="svg_30" stroke-width="17" stroke="#fff" fill="none"/>
  <path d="m528.5,252.45001c0,-1 -0.68927,-4.08026 0,-7c0.51373,-2.17624 1.61731,-4.07614 2,-5.00002c0.5412,-1.30656 1.69342,-2.4588 3,-3c0.92389,-0.38269 1.69342,-0.4588 3,-1c1.84778,-0.76537 3,0 3,0c1,0 2,0 2,0c0,0 1,0 1,1c0,1 0,3 0,4c0,2.00002 0,4.00002 0,7.00002c0,3 -1.18604,4.69254 -3,6c-1.14728,0.8269 -2,1 -2,1c-1,0 -1,0 -2,0c-1,0 -2.4588,-0.69345 -3,-2c-0.38269,-0.92389 0,-2 0,-4c0,-2 0.13464,-4.81146 3,-7.00002c2.51306,-1.91948 5.07843,-1.78986 8,-3c2.06586,-0.85571 5,-1 6,-1c1,0 1.14935,-0.52573 2,0c1.9021,1.17557 2.48627,4.82378 3,7.00002c0.91901,3.89301 1.34161,7.31671 0,10c-2.23608,4.47214 -5.87854,5.49347 -9,6c-1.97418,0.32037 -4.02673,0.22977 -5,0c-2.17627,-0.51373 -3.34619,-1.70547 -5,-4c-1.30743,-1.814 -2,-4 -2,-6c0,-1 0,-2 0,-5c0,-3 0.41888,-5.41887 2,-7.00002c1.58112,-1.58115 3.82373,-2.48625 6,-3c1.94647,-0.4595 3,0 5,0c0,0 1,0 1,0c1,0 1.4588,1.69344 2,3c0.76538,1.84776 1,3 1,3l0,0" id="svg_31" stroke-width="17" stroke="#fff" fill="none"/>
  <path d="m426.5,303.45001c0,0 -0.43497,4.01352 0,11c0.50098,8.04669 3.37256,16.30359 7,23c3.43469,6.34058 7.79486,11.22021 11,14c3.77728,3.276 7,5 10,6c3,1 5,1 7,1c2,0 3.41888,0.58115 5,-1c3.16229,-3.16229 3.69122,-8.07181 5,-13c1.62329,-6.11267 2.88135,-11.02521 4,-16c0.90454,-4.02264 2,-8 2,-10l1,0l0,-1l0,0" id="svg_54" fill-opacity="null" stroke-opacity="null" stroke-width="17" stroke="#fff" fill="none"/>
  <ellipse ry="67.5" rx="67.5" id="svg_59" cy="339.95" cx="162" fill-opacity="null" stroke-opacity="null" stroke-width="17"  fill="#5085ec"/>
  <path d="m153.5,287.45001c0,-1 0,-3 0,-6c0,-3 0,-7 0,-10c0,-2 0,-2 0,-3c0,0 0,-2 0,-5c0,-2 0,-5 0,-8c0,-3 1,-5 1,-8c0,-2 0,-4.00002 1,-7.00002c1,-3 1,-6 1,-7c0,-1 0,-1 0,-2c0,-1 0,-3 0,-5c0,-3 0,-5 0,-6c0,0 0,-1 0,-1c0,0 0,-1 0,-1c-1,0 -2,0 -4,0c-2,0 -6.96329,-0.16042 -11,-1c-5.95532,-1.23863 -13.87605,-3.34315 -19,-5c-3.92311,-1.26855 -8.0535,-1.5405 -10,-2c-2.17625,-0.51375 -4,-2 -6,-3c0,0 -1,0 -1,-1c0,0 0,0 0,0c0,-1 0,-1 0,-1c1,0 1.07613,0.38269 2,0c2.61313,-1.0824 6.09114,-3.79568 13,-7c10.14255,-4.7041 20.89183,-10.25671 42,-19c9.95049,-4.12163 23.30212,-9.38257 34,-15c5.16251,-2.71082 11.07843,-5.78986 14,-7c2.06586,-0.85571 3,-2 3,-2c1,0 1,0 1,0c-1,0 -1,-1 -3,-1c0,0 -2,0 -3,0c-1,0 -3,0 -6,-1c-6,-2 -13.05707,-3.83394 -22,-7c-8.05415,-2.85141 -15.39558,-5.10477 -23,-9c-3.20905,-1.64378 -6.87856,-3.49345 -10,-4c-1.97418,-0.32036 -2,0 -3,0c0,0 0,0 0,0c-1,0 -1,0 -1,0c0,0 0,0 0,-1c0,0 0,-1 0,-4c0,-2 1.49345,-4.87856 2,-8c0.32036,-1.97418 1,-3 1,-3c0,-1 0,-2 0,-3c0,-2 0,-3 0,-4c0,-1 0,-2 0,-3c0,-1 0,-3 0,-4c0,-1 0,-2 0,-3c0,-1 0,-2 0,-5c0,-1 0.48625,-1.82375 1,-4c0.22975,-0.97325 0.4588,-2.69344 1,-4c0.38269,-0.92388 0,-1 0,-1c0,-1 0,-1 0,-1c0,-1 0,-2 0,-2c0,-1 0.22975,-2.02675 0,-3c-0.51375,-2.17625 -1,-3 -1,-4c0,-2 0,-3 0,-4c0,0 -1,-1 -1,-2c0,-1 0,-1 0,-2c0,-1 0,-2 -1,-3c0,0 0,-1 0,-2c0,0 0,-1 0,-1c0,-1 -1,-1 -1,-1c0,-1 0,-1 0,-2c0,0 0,-1 0,-1c0,0 0,-1 0,-2c0,0 0,-1 0,-1c0,-1 0,-2 0,-2c0,-1 0,-1 0,-2c0,-2 -1,-4 -1,-5c0,-1 0,-2 0,-3c0,0 -1,-1 -1,-2c0,-1 0,-2 0,-4c0,0 0,-1 0,-1c0,-1 0,-1 0,-1c0,-1 0,-1 0,-2c0,-1 0,-1 0,-1c0,-1 0,-1 0,-1c0,-1 0.14429,-1.93414 1,-4c1.21014,-2.92156 1,-4 2,-6c0,0 0,-1 0,-1c1,0 1,-1 1,-1c0,0 1,0 1,0c1,0 2,-1 4,-1c1,0 2,-1 3,-1c1,0 1,0 2,0c0,0 0,1 0,1c0,1 0,2 0,3c0,1 0,2 0,3c0,1 -1.02582,2.67963 -3,3c-3.12144,0.50654 -6.96329,3.16042 -11,4c-5.95532,1.23863 -11,2 -14,2c-2,0 -3,0 -3,-1c0,-1 -0.76537,-2.15224 0,-4c0.5412,-1.30656 2,-2 2,-4c0,0 1.41885,-1.41886 3,-3c1.58115,-1.58114 2.85274,-4.1731 4,-5c1.814,-1.30745 4.70546,-2.34619 7,-4c1.814,-1.30745 2.82375,-2.48626 5,-3c0.97325,-0.22975 1,0 1,0c1,0 1,1 1,1c1,1 1,2 1,3c0,0 1,1 1,2c0,1 0,1 0,2c0,1 0,2 0,3c0,1 0,2 0,3c0,1 -0.69344,1.45881 -2,2c-0.92387,0.38268 -2,0 -3,0l-1,1l0,0" id="svg_63" stroke-width="17" stroke="#5085ec" fill="none"/>
 </g>
</svg>