<svg xmlns="http://www.w3.org/2000/svg" viewBox="0 0 6324 1069" width="750" height="127">
	<style>
		tspan { white-space:pre }
	</style>
	<path id="Digital Ungdom  " fill="#1e6ee8" d="M717.72 455.29Q717.72 533.71 693.67 599.3Q669.62 664.89 626.07 712.24Q582.51 759.58 521.26 785.72Q460.01 811.86 385.14 811.86L135.14 811.86L135.14 98.73L385.14 98.73Q460.01 98.73 521.26 125.36Q582.51 151.5 626.07 198.84Q669.62 245.69 693.67 311.29Q717.72 376.88 717.72 455.29ZM592.49 455.29Q592.49 396.6 577.97 350.25Q563.91 303.39 536.68 271.34Q509.91 238.79 471.35 221.53Q433.24 204.27 385.14 204.27L257.65 204.27L257.65 706.32L385.14 706.32Q433.24 706.32 471.35 689.06Q509.91 671.8 536.68 639.74Q563.91 607.19 577.97 560.83Q592.49 513.98 592.49 455.29ZM793.61 305.86L906.13 305.86L906.13 811.86L793.61 811.86L793.61 305.86ZM921.56 158.4Q921.56 174.18 915.66 187.99Q909.76 201.8 899.78 212.16Q890.25 222.51 877.09 228.93Q863.94 234.84 848.96 234.84Q834.44 234.84 821.29 228.93Q808.58 222.51 799.05 212.16Q789.52 201.8 783.63 187.99Q778.18 174.18 778.18 158.4Q778.18 142.13 783.63 127.82Q789.52 113.52 799.05 103.17Q808.58 92.81 821.29 86.89Q834.44 80.48 848.96 80.48Q863.94 80.48 877.09 86.89Q890.25 92.81 899.78 103.17Q909.76 113.52 915.66 127.82Q921.56 142.13 921.56 158.4ZM1180.75 546.53Q1201.62 546.53 1217.05 540.61Q1232.47 534.2 1242.46 523.35Q1252.89 512.5 1257.88 497.21Q1263.33 481.92 1263.33 463.68Q1263.33 426.2 1242.46 404.5Q1222.04 382.3 1180.75 382.3Q1139.46 382.3 1118.59 404.5Q1098.17 426.2 1098.17 463.68Q1098.17 481.43 1103.16 496.72Q1108.61 512.01 1118.59 523.35Q1129.03 534.2 1144.45 540.61Q1160.33 546.53 1180.75 546.53ZM1307.34 834.54Q1307.34 819.75 1299.17 810.38Q1291 801.01 1276.94 796.08Q1262.87 790.65 1243.82 788.19Q1225.22 785.72 1203.89 784.73Q1183.02 783.25 1160.33 782.27Q1138.1 781.28 1116.78 778.32Q1098.17 789.66 1086.38 804.95Q1075.03 820.24 1075.03 840.46Q1075.03 853.78 1080.93 865.61Q1087.28 876.96 1100.44 885.34Q1114.05 893.72 1135.38 898.66Q1156.7 903.1 1187.56 903.1Q1218.86 903.1 1241.55 898.16Q1264.24 892.74 1278.75 883.86Q1293.73 874.49 1300.53 862.16Q1307.34 849.34 1307.34 834.54ZM1285.11 323.12L1418.95 323.12L1418.95 368.49Q1418.95 390.19 1394.91 395.13L1353.16 403.51Q1362.69 429.65 1362.69 460.72Q1362.69 498.2 1348.63 528.78Q1335.02 558.86 1310.51 580.07Q1286.01 601.27 1252.44 613.11Q1219.32 624.45 1180.75 624.45Q1167.14 624.45 1154.43 622.97Q1141.73 621.49 1129.48 619.03Q1107.7 633.33 1107.7 651.08Q1107.7 666.37 1120.41 673.77Q1133.56 680.67 1154.89 683.63Q1176.21 686.59 1203.44 687.58Q1230.66 688.07 1259.24 690.54Q1287.83 693 1315.05 699.41Q1342.28 705.33 1363.6 718.65Q1384.92 731.96 1397.63 755.14Q1410.79 777.83 1410.79 813.83Q1410.79 847.37 1395.36 878.93Q1380.39 910.49 1351.35 935.15Q1322.77 959.81 1280.57 975.1Q1238.83 989.89 1185.29 989.89Q1132.66 989.89 1093.64 979.04Q1054.62 967.7 1028.75 949.45Q1002.89 930.71 990.19 906.55Q977.48 882.38 977.48 856.24Q977.48 820.73 996.99 797.06Q1016.96 772.9 1051.44 758.59Q1032.84 748.24 1021.95 730.98Q1011.06 713.72 1011.06 685.61Q1011.06 674.26 1014.69 662.43Q1018.77 650.1 1026.03 638.26Q1033.75 626.42 1045.09 616.07Q1056.43 605.22 1071.86 596.83Q1036.47 576.12 1016.05 541.6Q996.09 507.08 996.09 460.72Q996.09 423.24 1009.7 393.15Q1023.76 362.58 1048.26 341.37Q1073.22 319.67 1106.79 308.33Q1140.82 296.98 1180.75 296.98Q1210.7 296.98 1237.01 303.89Q1263.33 310.3 1285.11 323.12ZM1483.5 305.86L1596.02 305.86L1596.02 811.86L1483.5 811.86L1483.5 305.86ZM1611.45 158.4Q1611.45 174.18 1605.55 187.99Q1599.65 201.8 1589.67 212.16Q1580.14 222.51 1566.99 228.93Q1553.83 234.84 1538.85 234.84Q1524.34 234.84 1511.18 228.93Q1498.47 222.51 1488.95 212.16Q1479.42 201.8 1473.52 187.99Q1468.07 174.18 1468.07 158.4Q1468.07 142.13 1473.52 127.82Q1479.42 113.52 1488.95 103.17Q1498.47 92.81 1511.18 86.89Q1524.34 80.48 1538.85 80.48Q1553.83 80.48 1566.99 86.89Q1580.14 92.81 1589.67 103.17Q1599.65 113.52 1605.55 127.82Q1611.45 142.13 1611.45 158.4ZM1855.67 819.75Q1794.87 819.75 1762.2 782.76Q1729.99 745.28 1729.99 679.69L1729.99 397.1L1682.35 397.1Q1673.27 397.1 1666.92 390.69Q1660.57 384.28 1660.57 371.45L1660.57 323.12L1735.43 309.81L1759.03 171.72Q1761.3 161.85 1767.65 156.43Q1774 151 1783.98 151L1842.06 151L1842.06 310.3L1966.38 310.3L1966.38 397.1L1842.06 397.1L1842.06 671.3Q1842.06 694.98 1852.49 708.29Q1863.38 721.61 1881.99 721.61Q1892.42 721.61 1899.23 719.14Q1906.49 716.18 1911.48 713.22Q1916.92 710.26 1921.01 707.8Q1925.09 704.84 1929.17 704.84Q1934.16 704.84 1937.34 707.8Q1940.52 710.26 1944.15 715.69L1977.72 774.87Q1953.22 797.06 1921.46 808.41Q1889.7 819.75 1855.67 819.75ZM2274.12 681.17L2274.12 595.85Q2225.57 598.31 2192.45 605.22Q2159.33 611.63 2139.36 621.99Q2119.4 632.34 2110.78 646.15Q2102.16 659.96 2102.16 676.23Q2102.16 708.29 2119.4 722.1Q2137.1 735.91 2165.23 735.91Q2199.71 735.91 2224.66 722.59Q2250.07 708.78 2274.12 681.17ZM2037.28 415.35L2017.31 376.38Q2097.62 296.49 2210.6 296.49Q2251.43 296.49 2283.65 311.29Q2315.86 325.59 2338.09 351.73Q2360.33 377.37 2371.67 413.37Q2383.47 449.37 2383.47 492.28L2383.47 811.86L2332.65 811.86Q2316.77 811.86 2308.15 806.93Q2299.53 801.5 2294.54 785.72L2284.55 749.22Q2266.86 766.49 2250.07 779.8Q2233.28 792.62 2215.14 801.5Q2196.99 810.38 2176.12 815.31Q2155.7 819.75 2130.74 819.75Q2101.25 819.75 2076.3 811.36Q2051.34 802.49 2033.19 785.23Q2015.04 767.97 2005.06 742.32Q1995.08 716.68 1995.08 682.65Q1995.08 663.41 2000.98 644.67Q2006.88 625.44 2020.04 608.18Q2033.65 590.92 2054.97 575.63Q2076.3 560.34 2107.15 549Q2138.46 537.65 2179.75 530.75Q2221.03 523.35 2274.12 521.87L2274.12 492.28Q2274.12 441.48 2254.16 417.32Q2234.19 392.66 2196.53 392.66Q2169.31 392.66 2151.16 399.56Q2133.47 406.47 2119.85 415.35Q2106.24 423.73 2094.9 430.63Q2084.01 437.54 2070.4 437.54Q2058.6 437.54 2050.43 431.13Q2042.27 424.22 2037.28 415.35ZM2480.23 79L2592.3 79L2592.3 811.86L2480.23 811.86L2480.23 79ZM3186.91 704.84Q3222.3 704.84 3249.97 692.02Q3278.1 679.19 3297.16 656.01Q3316.22 632.84 3326.2 599.79Q3336.63 566.75 3336.63 525.82L3336.63 98.73L3458.69 98.73L3458.69 525.82Q3458.69 589.44 3439.63 643.69Q3421.03 697.44 3385.64 736.9Q3350.7 775.86 3300.34 798.05Q3249.97 819.75 3186.91 819.75Q3123.39 819.75 3073.02 798.05Q3022.66 775.86 2987.27 736.9Q2952.33 697.44 2933.28 643.69Q2914.67 589.44 2914.67 525.82L2914.67 98.73L3036.73 98.73L3036.73 525.32Q3036.73 566.26 3046.71 599.3Q3057.14 632.34 3076.2 656.01Q3095.71 679.19 3123.39 692.02Q3151.52 704.84 3186.91 704.84ZM3651.18 328.05L3658.89 368Q3672.96 352.71 3688.39 339.89Q3704.27 326.57 3721.51 317.7Q3739.2 308.33 3759.17 303.39Q3779.13 297.97 3802.72 297.97Q3840.84 297.97 3870.33 312.27Q3899.82 326.08 3919.33 351.73Q3939.29 376.88 3949.28 412.39Q3959.71 447.4 3959.71 489.81L3959.71 811.86L3847.64 811.86L3847.64 489.81Q3847.64 443.46 3828.13 418.3Q3808.62 392.66 3768.7 392.66Q3739.66 392.66 3714.25 406.96Q3688.84 421.26 3666.15 445.92L3666.15 811.86L3554.09 811.86L3554.09 305.86L3622.6 305.86Q3644.38 305.86 3651.18 328.05ZM4226.16 546.53Q4247.04 546.53 4262.46 540.61Q4277.89 534.2 4287.87 523.35Q4298.31 512.5 4303.3 497.21Q4308.74 481.92 4308.74 463.68Q4308.74 426.2 4287.87 404.5Q4267.45 382.3 4226.16 382.3Q4184.88 382.3 4164 404.5Q4143.59 426.2 4143.59 463.68Q4143.59 481.43 4148.58 496.72Q4154.02 512.01 4164 523.35Q4174.44 534.2 4189.87 540.61Q4205.75 546.53 4226.16 546.53ZM4352.75 834.54Q4352.75 819.75 4344.59 810.38Q4336.42 801.01 4322.35 796.08Q4308.29 790.65 4289.23 788.19Q4270.63 785.72 4249.3 784.73Q4228.43 783.25 4205.75 782.27Q4183.51 781.28 4162.19 778.32Q4143.59 789.66 4131.79 804.95Q4120.45 820.24 4120.45 840.46Q4120.45 853.78 4126.35 865.61Q4132.7 876.96 4145.86 885.34Q4159.47 893.72 4180.79 898.66Q4202.12 903.1 4232.97 903.1Q4264.28 903.1 4286.96 898.16Q4309.65 892.74 4324.17 883.86Q4339.14 874.49 4345.95 862.16Q4352.75 849.34 4352.75 834.54ZM4330.52 323.12L4464.37 323.12L4464.37 368.49Q4464.37 390.19 4440.32 395.13L4398.58 403.51Q4408.11 429.65 4408.11 460.72Q4408.11 498.2 4394.04 528.78Q4380.43 558.86 4355.93 580.07Q4331.43 601.27 4297.85 613.11Q4264.73 624.45 4226.16 624.45Q4212.55 624.45 4199.85 622.97Q4187.14 621.49 4174.89 619.03Q4153.12 633.33 4153.12 651.08Q4153.12 666.37 4165.82 673.77Q4178.98 680.67 4200.3 683.63Q4221.63 686.59 4248.85 687.58Q4276.07 688.07 4304.66 690.54Q4333.24 693 4360.47 699.41Q4387.69 705.33 4409.01 718.65Q4430.34 731.96 4443.04 755.14Q4456.2 777.83 4456.2 813.83Q4456.2 847.37 4440.77 878.93Q4425.8 910.49 4396.76 935.15Q4368.18 959.81 4325.98 975.1Q4284.24 989.89 4230.7 989.89Q4178.07 989.89 4139.05 979.04Q4100.03 967.7 4074.17 949.45Q4048.31 930.71 4035.6 906.55Q4022.9 882.38 4022.9 856.24Q4022.9 820.73 4042.41 797.06Q4062.37 772.9 4096.85 758.59Q4078.25 748.24 4067.36 730.98Q4056.47 713.72 4056.47 685.61Q4056.47 674.26 4060.1 662.43Q4064.19 650.1 4071.45 638.26Q4079.16 626.42 4090.5 616.07Q4101.84 605.22 4117.27 596.83Q4081.88 576.12 4061.46 541.6Q4041.5 507.08 4041.5 460.72Q4041.5 423.24 4055.11 393.15Q4069.18 362.58 4093.68 341.37Q4118.63 319.67 4152.21 308.33Q4186.24 296.98 4226.16 296.98Q4256.11 296.98 4282.43 303.89Q4308.74 310.3 4330.52 323.12ZM4810.68 661.93L4810.68 435.07Q4791.62 409.92 4768.93 399.56Q4746.7 389.21 4720.84 389.21Q4695.43 389.21 4675.01 399.56Q4654.6 409.92 4640.08 431.13Q4625.56 451.84 4617.84 484.39Q4610.13 516.45 4610.13 560.34Q4610.13 604.72 4616.48 635.79Q4623.29 666.37 4635.54 686.1Q4647.79 705.33 4665.48 714.21Q4683.18 722.59 4704.96 722.59Q4739.89 722.59 4764.4 706.81Q4788.9 691.03 4810.68 661.93ZM4810.68 79L4922.74 79L4922.74 811.86L4854.23 811.86Q4832 811.86 4826.1 789.66L4816.57 740.84Q4788.44 775.86 4751.69 797.56Q4715.39 819.26 4666.85 819.26Q4628.73 819.26 4596.97 801.99Q4565.21 784.73 4542.07 752.18Q4519.39 719.14 4506.68 670.81Q4494.43 622.48 4494.43 560.34Q4494.43 504.12 4508.5 455.79Q4522.56 407.45 4548.88 371.95Q4575.19 336.44 4611.95 316.71Q4648.7 296.49 4694.52 296.49Q4733.54 296.49 4761.22 309.81Q4788.9 323.12 4810.68 345.81L4810.68 79ZM5229.58 297.97Q5281.3 297.97 5323.5 316.22Q5366.15 334.46 5396.09 368Q5426.49 401.54 5442.83 449.87Q5459.16 498.2 5459.16 557.87Q5459.16 618.04 5442.83 666.37Q5426.49 714.7 5396.09 748.73Q5366.15 782.76 5323.5 801.01Q5281.3 819.26 5229.58 819.26Q5177.4 819.26 5134.75 801.01Q5092.1 782.76 5061.7 748.73Q5031.76 714.7 5014.97 666.37Q4998.63 618.04 4998.63 557.87Q4998.63 498.2 5014.97 449.87Q5031.76 401.54 5061.7 368Q5092.1 334.46 5134.75 316.22Q5177.4 297.97 5229.58 297.97ZM5229.58 725.55Q5287.65 725.55 5315.33 683.14Q5343.46 640.73 5343.46 558.86Q5343.46 476.99 5315.33 434.09Q5287.65 391.18 5229.58 391.18Q5170.59 391.18 5142.01 434.58Q5113.88 477.49 5113.88 558.86Q5113.88 640.23 5142.01 683.14Q5170.59 725.55 5229.58 725.55ZM5647.12 811.86L5535.05 811.86L5535.05 305.86L5603.56 305.86Q5625.34 305.86 5632.15 328.05L5639.41 365.53Q5651.66 350.74 5664.81 338.41Q5678.43 326.08 5693.4 317.2Q5708.83 308.33 5726.07 303.39Q5743.76 297.97 5764.63 297.97Q5808.64 297.97 5836.77 324.11Q5865.36 349.75 5879.42 392.66Q5890.31 367.51 5906.65 349.75Q5922.98 331.51 5942.49 320.16Q5962 308.82 5983.78 303.39Q6006.01 297.97 6028.24 297.97Q6066.81 297.97 6096.76 310.79Q6126.7 323.61 6147.12 348.27Q6167.54 372.93 6177.97 408.44Q6188.86 443.95 6188.86 489.81L6188.86 811.86L6076.79 811.86L6076.79 489.81Q6076.79 441.48 6057.28 417.32Q6037.77 392.66 6000.11 392.66Q5982.87 392.66 5967.9 399.07Q5953.38 405.48 5942.04 417.81Q5931.15 429.65 5924.8 447.89Q5918.44 466.14 5918.44 489.81L5918.44 811.86L5805.92 811.86L5805.92 489.81Q5805.92 439.02 5786.87 415.84Q5768.26 392.66 5731.97 392.66Q5707.46 392.66 5686.14 405.97Q5665.27 418.8 5647.12 441.48L5647.12 811.86Z" />
</svg>